<svg version="1.1" xmlns="http://www.w3.org/2000/svg" viewBox="0 0 829.973087310791 1023.4252948760986" width="829.973087310791" height="1023.4252948760986">
  <!-- svg-source:excalidraw -->
  
  <defs>
    <style class="style-fonts">
      @font-face {
        font-family: "Virgil";
        src: url("https://excalidraw.com/Virgil.woff2");
      }
      @font-face {
        font-family: "Cascadia";
        src: url("https://excalidraw.com/Cascadia.woff2");
      }
    </style>
  </defs>
  <rect x="0" y="0" width="829.973087310791" height="1023.4252948760986" fill="#ffffff"></rect><g stroke-linecap="round" transform="translate(10 138.71319770812988) rotate(0 373.4928512573242 31.74457550048828)"><path d="M0.41 -0.03 C283.03 0.36, 564.73 -0.63, 747.61 0.09 M-0.38 -0.17 C276.39 2.11, 553.17 1.51, 747.15 0.26 M747.91 -0.64 C748.31 21.51, 745.9 47.74, 747.21 62.49 M746.22 -0.02 C745.74 21.15, 747.16 43.01, 746.96 63.67 M746.44 63.75 C467.76 65.79, 190.02 66.36, 0.76 62.73 M747.14 63.18 C518.35 65.87, 289.09 66.12, 0 63.55 M-0.71 63.37 C0.8 41.18, -0.83 17.69, 1.15 0.99 M0.94 63.82 C0.84 41.31, 0.53 19.47, -0.82 0.43" stroke="#00bf8a" stroke-width="1" fill="none"></path></g><g transform="translate(11.256103515625 98.31947135925293) rotate(0 24.5 12.5)"><text x="0" y="18" font-family="Virgil, Segoe UI Emoji" font-size="20px" fill="#00bf8a" text-anchor="start" style="white-space: pre;" direction="ltr">topic</text></g><g stroke-linecap="round" transform="translate(28.846588134765625 154.23850059509277) rotate(0 52.5 15)"><path d="M-0.71 0.14 C37.05 -0.06, 75.51 -0.74, 105.82 1.74 M0.44 -0.56 C22.55 0.88, 46.26 1.46, 105.37 -0.23 M104.58 1.45 C103.89 7.74, 105.36 12.52, 106.69 28.44 M105.78 0.93 C105.89 8.24, 104.13 15.71, 105.92 29.25 M103.49 31.42 C70.46 30.3, 35.58 30.85, 0.37 28.34 M104.85 30.95 C63.52 29.03, 22.85 29.88, -0.47 30.46 M1.24 31.6 C1.59 23.17, -1.01 13.91, 1.1 -1.21 M-0.9 30.19 C-0.02 23.11, 0.58 15.48, 0.14 -0.26" stroke="#00bf8a" stroke-width="1" fill="none"></path></g><g transform="translate(46.346588134765625 159.23850059509277) rotate(0 35 10)"><text x="35" y="14" font-family="Virgil, Segoe UI Emoji" font-size="16px" fill="#00bf8a" text-anchor="middle" style="white-space: pre;" direction="ltr">message1</text></g><g stroke-linecap="round" transform="translate(160.3765869140625 153.30574989318848) rotate(0 52.5 15)"><path d="M-1.01 1.32 C37.22 1, 76.5 -1.8, 104.21 1.86 M-0.03 -0.92 C24.14 -0.74, 47.72 -1.09, 105.76 0.16 M103.38 -1.67 C107.22 10.51, 104.21 21.97, 103.54 31.07 M104.32 0.07 C105.74 9.87, 104.41 19.1, 105.7 30.75 M106.73 29.1 C72.38 32.74, 42.85 31.84, 0.45 28.63 M105.63 30.98 C82.53 28.72, 60.82 29.85, -0.57 30.67 M0.07 30.01 C1.02 21.63, -1.72 11.2, 0.16 -1.04 M0.27 29.45 C-0.42 20.08, 0.74 11.03, -0.25 -0.51" stroke="#00bf8a" stroke-width="1" fill="none"></path></g><g transform="translate(174.3765869140625 158.30574989318848) rotate(0 38.5 10)"><text x="38.5" y="14" font-family="Virgil, Segoe UI Emoji" font-size="16px" fill="#00bf8a" text-anchor="middle" style="white-space: pre;" direction="ltr">message2</text></g><g stroke-linecap="round" transform="translate(296.689453125 152.97554969787598) rotate(0 52.5 15)"><path d="M-1.53 -0.79 C23.76 -0.62, 45.51 1.17, 104.94 -1.84 M-0.92 0.76 C34.68 0.71, 69.88 -0.13, 104.19 -0.83 M104.61 -1.46 C105.97 12.08, 105.93 24.96, 103.64 30.14 M105.72 0.7 C105.96 10.74, 104.54 22.48, 105.86 29.55 M105.83 30.45 C79.07 28.49, 54.75 29.43, 1.27 31.96 M105.27 29.43 C75.35 30.71, 44.94 30.72, 0.04 30.01 M0.1 30.16 C-1.2 19.83, -0.93 8.22, 0.55 -1.1 M0.9 29.75 C-0.52 23.24, -0.99 15.24, 0.45 0.85" stroke="#00bf8a" stroke-width="1" fill="none"></path></g><g transform="translate(310.689453125 157.97554969787598) rotate(0 38.5 10)"><text x="38.5" y="14" font-family="Virgil, Segoe UI Emoji" font-size="16px" fill="#00bf8a" text-anchor="middle" style="white-space: pre;" direction="ltr">message3</text></g><g stroke-linecap="round" transform="translate(16.263198852539062 12.544641494750977) rotate(0 73.25847625732422 18.194761276245117)"><path d="M-1.69 1.31 C47.55 2.51, 91.51 -0.02, 145.9 1.55 M0.24 0.99 C52.81 0.52, 106.73 0.6, 145.67 -0.6 M147.05 1.74 C147.56 10.02, 145.37 16.35, 144.89 35.33 M147.41 0.38 C145.83 8.86, 146.57 19.12, 147.45 36.32 M144.62 37.49 C95.23 36.1, 44.51 38.73, -0.01 36.65 M145.57 36.75 C106.5 37.24, 66.37 36.51, 0.04 35.8 M1.32 37.49 C-1.14 25.19, 0.11 14.28, -1.67 1.62 M-0.97 36.2 C-0.62 23.86, 0.67 11.16, 0.44 0.47" stroke="#212121" stroke-width="1" fill="none"></path></g><g transform="translate(53.52167510986328 20.739402770996094) rotate(0 36 10)"><text x="36" y="14" font-family="Virgil, Segoe UI Emoji" font-size="16px" fill="#212121" text-anchor="middle" style="white-space: pre;" direction="ltr">producer1</text></g><g stroke-linecap="round" transform="translate(277.0802688598633 10) rotate(0 73.25847625732422 18.194761276245117)"><path d="M0.72 1.92 C41.21 -0.31, 82.52 1, 146.01 -1.47 M-0.53 -0.8 C32.91 -1.46, 63.36 -0.47, 145.52 0.07 M145.76 -1.62 C145.02 8.49, 147.1 18.02, 145.12 34.44 M146.19 -0.21 C145.96 13.47, 147.05 27.92, 145.71 35.71 M145.19 35.11 C105.12 38.71, 63.42 37.12, -0.69 37.04 M145.9 35.69 C97.94 34.47, 49.67 35.72, 0.97 37.18 M0.16 36.8 C-0.12 23.97, -1.07 15.08, 0.83 -0.03 M0.95 36.66 C-0.46 26.02, 0.53 13.56, -0.82 -0.07" stroke="#212121" stroke-width="1" fill="none"></path></g><g transform="translate(310.8387451171875 18.194761276245117) rotate(0 39.5 10)"><text x="39.5" y="14" font-family="Virgil, Segoe UI Emoji" font-size="16px" fill="#212121" text-anchor="middle" style="white-space: pre;" direction="ltr">producer2</text></g><g stroke-linecap="round" transform="translate(545.2722549438477 10.927467346191406) rotate(0 73.25847625732422 18.194761276245117)"><path d="M1.64 -1.7 C51.02 0.4, 101.42 -1.69, 148.37 -1.19 M0.98 -0.2 C36.03 -1.31, 71.4 -2.13, 146.94 -0.37 M147.78 0.87 C145.68 9.21, 147.66 17.92, 147.88 35.15 M145.98 -0.58 C146.64 11.61, 146.54 22.5, 146.97 36.9 M145.47 35.42 C106.51 34.23, 68.87 33.84, -0.84 35.53 M146.06 36.05 C95.64 37.72, 45.19 37.32, -0.43 36.71 M1.04 37.57 C-2 22.35, 0.58 9, 0.85 -0.78 M0.65 37.31 C-0.17 22.92, -0.2 11.76, -0.9 0.98" stroke="#212121" stroke-width="1" fill="none"></path></g><g transform="translate(579.5307312011719 19.122228622436523) rotate(0 39 10)"><text x="39" y="14" font-family="Virgil, Segoe UI Emoji" font-size="16px" fill="#212121" text-anchor="middle" style="white-space: pre;" direction="ltr">producer3</text></g><g stroke-linecap="round"><g transform="translate(98.57164903338116 55.257242787009545) rotate(0 -0.8398016182584911 37.925215917960486)"><path d="M-0.64 0.8 C-1.3 13.03, -2.65 62.21, -2.9 74.57 M1.22 0.18 C0.82 13.05, -0.08 63.03, -0.8 75.67" stroke="#212121" stroke-width="1" fill="none"></path></g><g transform="translate(98.57164903338116 55.257242787009545) rotate(0 -0.8398016182584911 37.925215917960486)"><path d="M-8.74 45.19 C-7.58 57.59, -3.31 69.03, 0.66 74.85 M-9.79 46.97 C-8.12 55.21, -5.87 63.67, 0.05 76.44" stroke="#212121" stroke-width="1" fill="none"></path></g><g transform="translate(98.57164903338116 55.257242787009545) rotate(0 -0.8398016182584911 37.925215917960486)"><path d="M11.77 45.9 C4.98 57.92, 1.3 69.08, 0.66 74.85 M10.72 47.68 C6.77 55.69, 3.4 63.95, 0.05 76.44" stroke="#212121" stroke-width="1" fill="none"></path></g></g><mask></mask><g stroke-linecap="round"><g transform="translate(359.79334023800175 56.21182007043717) rotate(0 -0.052327662228265126 36.47156507665386)"><path d="M0.73 -0.8 C0.73 11.22, 0.33 60, 0.03 72.4 M-0.35 1.4 C-0.48 13.56, -1.05 62.03, -0.74 73.74" stroke="#212121" stroke-width="1" fill="none"></path></g><g transform="translate(359.79334023800175 56.21182007043717) rotate(0 -0.052327662228265126 36.47156507665386)"><path d="M-12.44 46.14 C-8.55 52.75, -3.47 64.19, -1.32 72.63 M-10.28 46.32 C-6.97 53.58, -4.39 62.66, -0.54 73.03" stroke="#212121" stroke-width="1" fill="none"></path></g><g transform="translate(359.79334023800175 56.21182007043717) rotate(0 -0.052327662228265126 36.47156507665386)"><path d="M8.08 46.06 C5.79 52.82, 4.7 64.28, -1.32 72.63 M10.24 46.24 C7.09 53.73, 3.21 62.83, -0.54 73.03" stroke="#212121" stroke-width="1" fill="none"></path></g></g><mask></mask><g stroke-linecap="round"><g transform="translate(615.9172608179051 58.85181147812523) rotate(0 -0.21456920492300924 36.26832892351695)"><path d="M0.32 0.52 C0.56 12.47, 0.56 59.9, 0.5 71.75 M-0.96 -0.25 C-0.78 11.82, -0.28 60.68, -0.27 72.78" stroke="#212121" stroke-width="1" fill="none"></path></g><g transform="translate(615.9172608179051 58.85181147812523) rotate(0 -0.21456920492300924 36.26832892351695)"><path d="M-9.83 45.22 C-9.96 50.56, -7.84 56.24, 1.07 72.56 M-9.81 45.02 C-8.16 50.4, -6.52 58.44, -0.91 73.02" stroke="#212121" stroke-width="1" fill="none"></path></g><g transform="translate(615.9172608179051 58.85181147812523) rotate(0 -0.21456920492300924 36.26832892351695)"><path d="M10.69 45.09 C5.97 50.52, 3.52 56.23, 1.07 72.56 M10.71 44.89 C7.41 50.51, 4.09 58.58, -0.91 73.02" stroke="#212121" stroke-width="1" fill="none"></path></g></g><mask></mask><g stroke-linecap="round" transform="translate(425.2647399902344 152.617769241333) rotate(0 52.5 15)"><path d="M1.1 -1.06 C29.25 -1.56, 59.47 1.34, 103.76 0.45 M0.51 0.23 C35.46 -0.92, 70.66 -1.18, 105.7 0.78 M103.44 -0.34 C105.71 8.7, 104.61 17.84, 104.02 31.08 M105.61 0.76 C104.94 6.42, 105.26 12.97, 104.59 30.67 M106.16 29.3 C78.24 28.04, 46.88 30.84, 0.75 31.66 M104.92 30.96 C81.85 30.65, 56.68 29.23, -0.84 29.65 M1.46 28.82 C-0.76 22.18, 0.94 10.52, -1.08 -0.81 M0.48 30.78 C0.81 18.36, 0.46 7.88, 0.01 -0.84" stroke="#00bf8a" stroke-width="1" fill="none"></path></g><g transform="translate(470.2647399902344 157.617769241333) rotate(0 7.5 10)"><text x="7.5" y="14" font-family="Virgil, Segoe UI Emoji" font-size="16px" fill="#00bf8a" text-anchor="middle" style="white-space: pre;" direction="ltr">...</text></g><g stroke-linecap="round" transform="translate(14.87884521484375 288.15964698791504) rotate(0 162.90611267089844 222.1486473083496)"><path d="M0.3 0.69 C93.01 -0.6, 186.16 1.15, 324.71 -0.6 M-0.58 -0.15 C110.83 -0.69, 220.79 -1.33, 326.08 -0.04 M325.04 0.96 C325.62 115.27, 324.96 231.32, 326.14 443.4 M326.25 0.41 C323.43 88.94, 324.34 178.58, 325.97 444.07 M325.57 444.99 C243.25 446.9, 158.23 446.78, 0.87 443.18 M325.15 444.17 C249.62 444.72, 174.63 444.12, 0.68 444.72 M-0.55 443.83 C-0.6 271.24, -0.91 97.83, 0.7 -0.47 M0.46 444.11 C-0.95 274.47, -0.8 105.16, -0.28 -0.3" stroke="#00bf8a" stroke-width="1" fill="none"></path></g><g transform="translate(20.154083251953125 245.45376777648926) rotate(0 96.5 12.5)"><text x="0" y="18" font-family="Virgil, Segoe UI Emoji" font-size="20px" fill="#00bf8a" text-anchor="start" style="white-space: pre;" direction="ltr">partition - scalable</text></g><g stroke-linecap="round" transform="translate(42.36713409423828 340.3023624420166) rotate(0 77.34112548828125 22.40860366821289)"><path d="M-1.53 -1.84 C56.84 1.79, 109.21 2.42, 153.54 0.2 M0.18 0.54 C48.63 -1.21, 96.91 -0.3, 153.88 0.29 M153.75 -1.44 C153.13 17.68, 152.91 34.05, 154.07 46.45 M155.25 0.86 C153.98 11.78, 154.31 22.02, 155.25 45.47 M155.57 43.35 C121.8 43.49, 87.67 42.28, -0.28 45.12 M153.74 45.49 C102.96 44.63, 50.06 43.29, -0.61 44.69 M1.41 43.85 C-1.83 29.99, 0.16 16.18, -0.5 -0.82 M-0.72 45.65 C-0.41 32.43, -0.46 20.34, 0.75 -0.24" stroke="#00bf8a" stroke-width="1" fill="none"></path></g><g stroke-linecap="round"><g transform="translate(90.69694519042969 342.45312690734863) rotate(0 0.3498698957854458 20.96203906014557)"><path d="M0.71 -1.19 C0.78 5.88, 1.03 35.71, 1.11 43.11 M-0.37 0.81 C-0.55 7.47, -0.1 34.63, 0.03 41.39" stroke="#00bf8a" stroke-width="1" fill="none"></path></g></g><mask></mask><g stroke-linecap="round"><g transform="translate(141.99737548828125 339.8828983306885) rotate(0 1.26479024320372 22.018582890410812)"><path d="M-0.46 1.14 C-0.17 8.42, 0.45 36.36, 0.58 43.34 M1.51 0.7 C2.29 7.62, 2.78 34.08, 2.99 41.34" stroke="#00bf8a" stroke-width="1" fill="none"></path></g></g><mask></mask><g transform="translate(43.48930358886719 312.5158863067627) rotate(0 7 10)"><text x="0" y="14" font-family="Virgil, Segoe UI Emoji" font-size="16px" fill="#00bf8a" text-anchor="start" style="white-space: pre;" direction="ltr">p1</text></g><g stroke-linecap="round" transform="translate(44.816646575927734 450.05842781066895) rotate(0 122.7735710144043 22.25433349609375)"><path d="M-0.3 1.44 C58.96 -0.63, 113.89 -2.06, 244.46 -1.27 M-0.4 0.3 C92.87 -1.25, 186.66 -1.73, 246.03 -0.32 M246.98 -0.28 C244.39 13.64, 245.58 28, 245.88 43.53 M246.04 -0.97 C244.98 14.87, 245.98 29.81, 244.59 43.91 M245.25 44.14 C146.64 43.98, 50.71 40.98, -1.2 44.47 M245.69 44.33 C171.7 43.82, 98.11 44.94, 0.58 44.79 M0.86 43.36 C-0.76 28.34, 0.21 10.51, -0.67 0.28 M0.71 44.87 C-0.21 26.93, -0.85 10.04, -0.96 0.01" stroke="#00bf8a" stroke-width="1" fill="none"></path></g><g transform="translate(161.09021759033203 462.3127613067627) rotate(0 6.5 10)"><text x="6.5" y="14" font-family="Virgil, Segoe UI Emoji" font-size="16px" fill="#00bf8a" text-anchor="middle" style="white-space: pre;" direction="ltr">2</text></g><g stroke-linecap="round"><g transform="translate(93.14645767211914 451.35313606262207) rotate(0 0.3344893200648471 21.76218845703181)"><path d="M-0.22 1.05 C0.07 8.06, 2.32 36.16, 2.46 42.97 M-1.79 0.55 C-1.63 7.14, 1.26 34.1, 2.08 41.18" stroke="#00bf8a" stroke-width="1" fill="none"></path></g></g><mask></mask><g stroke-linecap="round"><g transform="translate(144.4468879699707 448.7829074859619) rotate(0 0.9692757966179215 22.04755045589991)"><path d="M1.05 1.09 C1.2 8.18, 1.85 35.47, 1.8 42.34 M0.14 0.61 C0.11 7.86, 1.24 36.38, 1.18 43.48" stroke="#00bf8a" stroke-width="1" fill="none"></path></g></g><mask></mask><g stroke-linecap="round"><g transform="translate(195.58839797973633 452.02391242980957) rotate(0 -0.28165269568563644 21.008177534798165)"><path d="M1.09 0.63 C0.85 7.25, -1.19 34.18, -1.65 40.79 M0.2 -0.09 C0.37 7.22, 0.56 35.24, 0.66 42.1" stroke="#00bf8a" stroke-width="1" fill="none"></path></g></g><mask></mask><g stroke-linecap="round"><g transform="translate(243.04391860961914 451.7163715362549) rotate(0 -0.9989156010547049 20.82551497621921)"><path d="M0.63 -0.76 C0.21 5.94, -1.02 33.99, -1.45 41.28 M-0.5 1.46 C-1.2 8.81, -2.77 35.79, -2.61 42.41" stroke="#00bf8a" stroke-width="1" fill="none"></path></g></g><mask></mask><g transform="translate(45.93881607055664 421.41589546203613) rotate(0 10.5 10)"><text x="0" y="14" font-family="Virgil, Segoe UI Emoji" font-size="16px" fill="#00bf8a" text-anchor="start" style="white-space: pre;" direction="ltr">p2</text></g><g stroke-linecap="round" transform="translate(47.32572555541992 567.9801425933838) rotate(0 122.7735710144043 22.25433349609375)"><path d="M-1.52 0.24 C51.66 0.47, 100.68 -0.48, 246.12 0.13 M0.38 -0.05 C83.35 -1.31, 168.69 -1.15, 244.97 0.77 M246.27 0.03 C244.79 16.32, 246.5 30.66, 244.3 44.38 M245.75 0.97 C246.37 14.3, 245.93 27.79, 245.97 44.5 M245.54 45.41 C181.24 47.2, 118.51 46.24, -1.39 44.85 M245.04 45.16 C149.68 44.42, 55.1 42.95, 0.05 45.26 M-0.23 44.18 C1.35 31.72, -0.85 21.67, -1.05 0.37 M-0.42 43.51 C0.46 27.83, -0.02 11.65, -0.56 -0.89" stroke="#00bf8a" stroke-width="1" fill="none"></path></g><g stroke-linecap="round"><g transform="translate(95.48425674438477 569.2747745513916) rotate(0 0.5074736542999858 20.912611961946823)"><path d="M-1.11 0.18 C-0.85 7.29, 1.78 35.65, 2.12 42.6 M0.51 -0.78 C0.62 5.96, 1.66 33.32, 1.57 40.61" stroke="#00bf8a" stroke-width="1" fill="none"></path></g></g><mask></mask><g stroke-linecap="round"><g transform="translate(146.78468704223633 566.7045459747314) rotate(0 0.11861007287632219 22.04917457089755)"><path d="M0.18 0.75 C0.43 8.05, 1.33 35.55, 1.43 42.68 M-1.19 0.1 C-1.07 7.66, 0.46 37.11, 0.61 44" stroke="#00bf8a" stroke-width="1" fill="none"></path></g></g><mask></mask><g stroke-linecap="round"><g transform="translate(197.92619705200195 569.9455509185791) rotate(0 -0.8646353595564165 20.71583258804867)"><path d="M0.75 0.26 C0.72 7.02, -1.11 33.93, -1.31 40.77 M-0.31 -0.65 C-0.44 6.26, -2.36 34.87, -2.48 42.09" stroke="#00bf8a" stroke-width="1" fill="none"></path></g></g><mask></mask><g stroke-linecap="round"><g transform="translate(245.38171768188477 569.6380100250244) rotate(0 -1.188208975796556 20.402814051588052)"><path d="M0.26 -0.42 C-0.02 6.54, -1.26 35.32, -1.46 42.49 M-1.07 -1.68 C-1.55 4.84, -2.54 33.56, -2.63 40.59" stroke="#00bf8a" stroke-width="1" fill="none"></path></g></g><mask></mask><g transform="translate(48.276615142822266 539.3375339508057) rotate(0 10.5 10)"><text x="0" y="14" font-family="Virgil, Segoe UI Emoji" font-size="16px" fill="#00bf8a" text-anchor="start" style="white-space: pre;" direction="ltr">p3</text></g><g transform="translate(59.73930358886719 353.7658863067627) rotate(0 6.5 10)"><text x="0" y="14" font-family="Virgil, Segoe UI Emoji" font-size="16px" fill="#00bf8a" text-anchor="start" style="white-space: pre;" direction="ltr">0</text></g><g transform="translate(118.48930358886719 355.0158863067627) rotate(0 3 10)"><text x="0" y="14" font-family="Virgil, Segoe UI Emoji" font-size="16px" fill="#00bf8a" text-anchor="start" style="white-space: pre;" direction="ltr">1</text></g><g transform="translate(165.3673553466797 354.09246253967285) rotate(0 6.5 10)"><text x="0" y="14" font-family="Virgil, Segoe UI Emoji" font-size="16px" fill="#00bf8a" text-anchor="start" style="white-space: pre;" direction="ltr">2</text></g><g transform="translate(66.7779541015625 465.0244312286377) rotate(0 6.5 10)"><text x="0" y="14" font-family="Virgil, Segoe UI Emoji" font-size="16px" fill="#00bf8a" text-anchor="start" style="white-space: pre;" direction="ltr">0</text></g><g transform="translate(115.98930358886719 460.0158863067627) rotate(0 3 10)"><text x="0" y="14" font-family="Virgil, Segoe UI Emoji" font-size="16px" fill="#00bf8a" text-anchor="start" style="white-space: pre;" direction="ltr">1</text></g><g transform="translate(213.36936950683594 463.53540229797363) rotate(0 6.5 10)"><text x="0" y="14" font-family="Virgil, Segoe UI Emoji" font-size="16px" fill="#00bf8a" text-anchor="start" style="white-space: pre;" direction="ltr">3</text></g><g transform="translate(260.63751220703125 463.21485328674316) rotate(0 6 10)"><text x="0" y="14" font-family="Virgil, Segoe UI Emoji" font-size="16px" fill="#00bf8a" text-anchor="start" style="white-space: pre;" direction="ltr">4</text></g><g transform="translate(62.11228942871094 581.9576740264893) rotate(0 6.5 10)"><text x="0" y="14" font-family="Virgil, Segoe UI Emoji" font-size="16px" fill="#00bf8a" text-anchor="start" style="white-space: pre;" direction="ltr">0</text></g><g transform="translate(118.34678649902344 580.6649951934814) rotate(0 3 10)"><text x="0" y="14" font-family="Virgil, Segoe UI Emoji" font-size="16px" fill="#00bf8a" text-anchor="start" style="white-space: pre;" direction="ltr">1</text></g><g transform="translate(164.10980224609375 581.466157913208) rotate(0 6.5 10)"><text x="0" y="14" font-family="Virgil, Segoe UI Emoji" font-size="16px" fill="#00bf8a" text-anchor="start" style="white-space: pre;" direction="ltr">2</text></g><g transform="translate(210.29443359375 581.4859485626221) rotate(0 6.5 10)"><text x="0" y="14" font-family="Virgil, Segoe UI Emoji" font-size="16px" fill="#00bf8a" text-anchor="start" style="white-space: pre;" direction="ltr">3</text></g><g transform="translate(260.68846130371094 582.3556232452393) rotate(0 6 10)"><text x="0" y="14" font-family="Virgil, Segoe UI Emoji" font-size="16px" fill="#00bf8a" text-anchor="start" style="white-space: pre;" direction="ltr">4</text></g><g stroke-linecap="round"><g transform="translate(388.9213562011719 368.6924457550049) rotate(0 -89.85439765319694 0.8247453875839028)"><path d="M-0.68 -0.87 C-30.78 -0.26, -150.83 2.21, -180.87 2.52 M1.16 1.28 C-28.54 1.66, -148.72 0.72, -178.68 0.83" stroke="#00bf8a" stroke-width="1" fill="none"></path></g><g transform="translate(388.9213562011719 368.6924457550049) rotate(0 -89.85439765319694 0.8247453875839028)"><path d="M-151.92 -11 C-156.98 -8.47, -167.31 -5.08, -180.27 -0.33 M-151.22 -10.07 C-156.33 -7.85, -162.47 -3.88, -179.12 0.62" stroke="#00bf8a" stroke-width="1" fill="none"></path></g><g transform="translate(388.9213562011719 368.6924457550049) rotate(0 -89.85439765319694 0.8247453875839028)"><path d="M-151.97 9.52 C-156.83 6.4, -167.14 4.13, -180.27 -0.33 M-151.27 10.45 C-156.55 7.94, -162.68 7.19, -179.12 0.62" stroke="#00bf8a" stroke-width="1" fill="none"></path></g></g><mask></mask><g stroke-linecap="round"><g transform="translate(386.5076446533203 474.0990924835205) rotate(0 -46.097927079210024 -0.5502359203994729)"><path d="M-0.29 0.34 C-15.9 0.11, -77.87 -1.25, -93.29 -1.44 M1.76 -0.53 C-14 -0.64, -78.16 -0.62, -93.95 -0.47" stroke="#00bf8a" stroke-width="1" fill="none"></path></g><g transform="translate(386.5076446533203 474.0990924835205) rotate(0 -46.097927079210024 -0.5502359203994729)"><path d="M-65.25 -9.96 C-76.97 -5.78, -85.19 -3.11, -94.18 -2.47 M-65.92 -11.5 C-75.34 -8.31, -83.06 -4.68, -94.01 -0.31" stroke="#00bf8a" stroke-width="1" fill="none"></path></g><g transform="translate(386.5076446533203 474.0990924835205) rotate(0 -46.097927079210024 -0.5502359203994729)"><path d="M-65.16 10.56 C-76.91 7.93, -85.15 3.79, -94.18 -2.47 M-65.84 9.02 C-75.19 5.74, -82.95 2.88, -94.01 -0.31" stroke="#00bf8a" stroke-width="1" fill="none"></path></g></g><mask></mask><g stroke-linecap="round"><g transform="translate(391.5308380126953 596.2598133087158) rotate(0 -42.57396687102505 -1.3787404914339731)"><path d="M-1.11 0.23 C-15.5 0.22, -70.95 -0.76, -85.27 -1.27 M0.51 -0.7 C-14.03 -0.94, -70.88 -2.78, -85.65 -2.99" stroke="#00bf8a" stroke-width="1" fill="none"></path></g><g transform="translate(391.5308380126953 596.2598133087158) rotate(0 -42.57396687102505 -1.3787404914339731)"><path d="M-56.84 -10.78 C-67.02 -10.26, -80.61 -4.7, -84.59 -3.53 M-56.45 -13.15 C-67.54 -8.63, -79.89 -3.96, -85.59 -3.94" stroke="#00bf8a" stroke-width="1" fill="none"></path></g><g transform="translate(391.5308380126953 596.2598133087158) rotate(0 -42.57396687102505 -1.3787404914339731)"><path d="M-57.34 9.74 C-67.12 2.32, -80.52 -0.05, -84.59 -3.53 M-56.94 7.36 C-67.79 3.89, -79.96 0.57, -85.59 -3.94" stroke="#00bf8a" stroke-width="1" fill="none"></path></g></g><mask></mask><g stroke-linecap="round"><g transform="translate(394.222412109375 203.9003849029541) rotate(0 -0.7916730823698686 196.65047000513414)"><path d="M0.38 -0.01 C0.2 65.57, -0.9 327.34, -0.99 392.73 M-0.88 -1.06 C-1.22 64.81, -2.02 328.6, -1.96 394.36" stroke="#00bf8a" stroke-width="1" fill="none"></path></g></g><mask></mask><g stroke-linecap="round" transform="translate(51.38059997558594 671.5628528594971) rotate(0 120.5 20)"><path d="M1.43 -1.6 C83.62 1.16, 169.26 -1.33, 239.41 1.11 M-0.09 -0.68 C83.54 -1.97, 168.28 -1.61, 240.4 0.47 M239.77 0.51 C241.48 12.02, 239.97 24.55, 242.98 41.17 M240.85 -0.19 C239.98 12.89, 239.82 28.52, 240.39 39.61 M239.58 38.63 C178.34 40.87, 117.79 39.76, -0.22 40.88 M241.14 39.54 C163.29 41.25, 85.27 39.72, 0.21 39.64 M-1.7 39.3 C-0.06 23.72, -0.47 12.29, -1.31 1.59 M0.91 40.35 C-0.38 28.82, 0.51 16.56, 0.83 -0.78" stroke="#00bf8a" stroke-width="1" fill="none"></path></g><g transform="translate(164.38059997558594 681.5628528594971) rotate(0 7.5 10)"><text x="7.5" y="14" font-family="Virgil, Segoe UI Emoji" font-size="16px" fill="#00bf8a" text-anchor="middle" style="white-space: pre;" direction="ltr">...</text></g><g transform="translate(52.343017578125 638.7128162384033) rotate(0 8.5 10)"><text x="0" y="14" font-family="Virgil, Segoe UI Emoji" font-size="16px" fill="#00bf8a" text-anchor="start" style="white-space: pre;" direction="ltr">pn</text></g><g stroke-linecap="round" transform="translate(439.98023986816406 285.5355167388916) rotate(0 157.68299102783203 224.1708755493164)"><path d="M0.61 -0.14 C118.03 2.36, 236.59 0.29, 316.73 -0.67 M-0.53 -0.54 C69.48 1.22, 138.25 0.03, 315.38 -0.26 M315.29 -0.81 C313.92 175.37, 314.6 352.56, 314.54 449.02 M315.5 -0.27 C316.93 136.49, 317 272.52, 315.02 448.12 M315.32 449.42 C209.89 448.91, 102.13 448.61, -1.24 449.5 M314.86 447.91 C216.16 447.31, 118.74 448.04, -0.41 447.92 M0.76 447.47 C-0.8 346.56, -0.88 246.71, -0.19 -0.01 M-0.44 448.22 C-0.18 326.99, -0.32 206.62, -0.25 0.36" stroke="#212121" stroke-width="1" fill="none"></path></g><g stroke-linecap="round" transform="translate(472.11158752441406 337.3218250274658) rotate(0 129.6773910522461 23.456077575683594)"><path d="M-0.2 0.96 C71.61 -0.94, 141.69 -1.51, 260.35 -0.83 M0.66 0.23 C81.22 -1.14, 161.47 -1.53, 259.8 -0.63 M260.67 1.62 C260.28 16.83, 259.81 28.17, 259.06 48.79 M260.02 0.09 C260.48 15.41, 258.98 30.53, 259.37 47.87 M258.85 45.81 C192.52 47.98, 125.97 48.35, -1.27 48.04 M258.7 46.14 C193.24 47.71, 125.15 46.62, -0.8 46.45 M1.94 46.6 C-1.32 31.94, 1.2 19.82, 0.2 0.42 M-0.9 46.77 C-0.49 31.55, 1.07 15.94, 0.37 0.61" stroke="#212121" stroke-width="1" fill="none"></path></g><g transform="translate(478.2483673095703 312.190034866333) rotate(0 27 10)"><text x="0" y="14" font-family="Virgil, Segoe UI Emoji" font-size="16px" fill="#212121" text-anchor="start" style="white-space: pre;" direction="ltr">broker1</text></g><g stroke-linecap="round" transform="translate(487.9522705078125 347.15528297424316) rotate(0 50.96763610839844 15)"><path d="M-1.8 -0.28 C31.95 0.23, 68.46 -0.23, 102.68 1.22 M-0.45 0.46 C25.32 1.19, 50.99 0.9, 101.34 -0.23 M102.68 -1.57 C101.02 11.34, 100.95 23.64, 103.49 31.79 M102.39 -0.44 C102.73 8.79, 102.04 18.03, 102.35 30.62 M102.46 31.19 C68.95 29.45, 34.91 28.08, 1.49 29.83 M101.55 30.01 C74.91 28.97, 46.79 29.16, -0.24 31 M-1.19 28.59 C-0.83 22.89, 0.47 17.88, 1.46 -0.92 M0.81 29.15 C0.39 18.72, 0.92 7.09, 0.39 0.19" stroke="#212121" stroke-width="1" fill="none"></path></g><g transform="translate(531.9199066162109 352.15528297424316) rotate(0 7 10)"><text x="7" y="14" font-family="Virgil, Segoe UI Emoji" font-size="16px" fill="#212121" text-anchor="middle" style="white-space: pre;" direction="ltr">p1</text></g><g stroke-linecap="round" transform="translate(609.2191314697266 346.153528213501) rotate(0 50.96763610839844 15)"><path d="M1.5 0.05 C34.06 2.14, 64.86 2.66, 103.49 0.61 M-0.13 -0.36 C27.13 -0.11, 54.76 -0.69, 101.98 -0.2 M103.04 -0.26 C103.48 6.64, 100.47 13.8, 102.34 31.2 M102.75 -0.61 C102.71 6.6, 102.2 13.07, 102.33 30.75 M100.2 29.82 C63.8 30.85, 24.84 28.65, 0.88 29.86 M102.22 30.01 C69.82 31.43, 39.97 31.41, -0.82 30.22 M0.1 31.98 C1.17 24.42, -0.59 16.05, 1.12 -1.94 M-0.19 29.15 C-0.07 21, -0.18 12.26, 0.38 -0.52" stroke="#212121" stroke-width="1" fill="none"></path></g><g transform="translate(649.686767578125 351.153528213501) rotate(0 10.5 10)"><text x="10.5" y="14" font-family="Virgil, Segoe UI Emoji" font-size="16px" fill="#212121" text-anchor="middle" style="white-space: pre;" direction="ltr">p2</text></g><g stroke-linecap="round" transform="translate(472.1059799194336 463.0955753326416) rotate(0 129.6773910522461 23.456077575683594)"><path d="M0.09 1.56 C102.09 0.88, 204.22 2.1, 257.9 0.68 M-0.47 -0.67 C78.89 -0.75, 158.67 -0.24, 258.94 -0.65 M260.17 -1.36 C259.47 15.77, 259.01 28.96, 260.02 45.19 M259.26 0.63 C258.41 15.46, 260.14 30.59, 259.21 46.54 M260.87 46.29 C179.21 47.59, 100.87 47.77, -1.42 45.99 M259.69 47.13 C158.98 45.4, 57.52 45.26, 0.17 46.69 M-0.54 45.49 C-1.71 36.91, -0.77 22.02, 0.51 -1.21 M0.35 47.63 C0.4 29.73, 0.97 10.17, -0.84 0.97" stroke="#212121" stroke-width="1" fill="none"></path></g><g transform="translate(478.24275970458984 437.9637851715088) rotate(0 30.5 10)"><text x="0" y="14" font-family="Virgil, Segoe UI Emoji" font-size="16px" fill="#212121" text-anchor="start" style="white-space: pre;" direction="ltr">broker2</text></g><g stroke-linecap="round" transform="translate(487.7754592895508 472.92903327941895) rotate(0 50.96763610839844 15)"><path d="M-0.63 -0.45 C23.28 0.07, 47.15 -0.14, 102.06 1.77 M-0.61 -0.43 C32.47 1.07, 64.65 0.04, 102.01 -0.87 M102.46 1.35 C102.12 11.2, 102.72 20.46, 102.41 29.59 M101.09 0.26 C102.79 10.65, 101.76 20.53, 102.02 29.36 M101.78 29.08 C66.37 28.9, 25.13 28.46, 1.77 30.99 M102.46 29.27 C75.62 29.37, 50.12 29.99, -0.47 29.77 M-1.82 31.88 C-0.79 19.48, 0.59 10.02, 1.74 -0.98 M0.17 30.98 C0.64 17.94, -0.95 7.69, -0.38 -0.67" stroke="#212121" stroke-width="1" fill="none"></path></g><g transform="translate(528.2430953979492 477.92903327941895) rotate(0 10.5 10)"><text x="10.5" y="14" font-family="Virgil, Segoe UI Emoji" font-size="16px" fill="#212121" text-anchor="middle" style="white-space: pre;" direction="ltr">p3</text></g><g stroke-linecap="round" transform="translate(609.2135238647461 471.92727851867676) rotate(0 50.96763610839844 15)"><path d="M-1.21 1.07 C38.69 1.08, 81.15 2.01, 102.33 -1.17 M-0.12 0.21 C21.49 -0.38, 44.09 -0.43, 102.63 0.41 M102 0.11 C102.68 5.24, 102.49 13.52, 102.9 29.8 M102.82 0.2 C101.53 10.51, 101.77 21.12, 102.62 30.95 M103.88 29.3 C73.56 28.39, 50.5 30.52, -0.9 30.84 M101.63 29.1 C68.85 28.98, 34.88 29.03, 0.13 29.73 M-0.87 28.87 C0.79 21.92, 2.01 15.28, 1.76 0.7 M0.74 29.58 C-0.9 19.81, -0.43 7.01, -0.7 -0.3" stroke="#212121" stroke-width="1" fill="none"></path></g><g transform="translate(653.1811599731445 476.92727851867676) rotate(0 7 10)"><text x="7" y="14" font-family="Virgil, Segoe UI Emoji" font-size="16px" fill="#212121" text-anchor="middle" style="white-space: pre;" direction="ltr">p1</text></g><g stroke-linecap="round" transform="translate(473.98387908935547 613.4930667877197) rotate(0 129.6773910522461 31.95964813232422)"><path d="M-0.3 1.45 C58.7 -2.2, 120.07 -0.75, 258.11 0.67 M0.78 -0.1 C57.75 -0.12, 115.3 -0.14, 259.21 -0.75 M258.02 1.83 C258.91 20.37, 260.1 38.17, 261.29 65.34 M259.2 0.61 C259.57 22.55, 259.43 43.45, 258.46 63.04 M259.28 63.5 C165.59 62.7, 73.88 61.79, -1.39 63.41 M259.43 63.94 C156.36 62.93, 54.25 62.2, -0.18 64.31 M0.06 65.5 C-0.9 46.08, 0.16 28.59, 1.57 0.24 M0.93 63.77 C-0.17 37.91, -0.38 13.54, 0.85 -0.5" stroke="#212121" stroke-width="2" fill="none"></path></g><g transform="translate(478.5795211791992 586.6523303985596) rotate(0 85 12.5)"><text x="0" y="18" font-family="Virgil, Segoe UI Emoji" font-size="20px" fill="#212121" text-anchor="start" style="white-space: pre;" direction="ltr">broker3 - Leader</text></g><g stroke-linecap="round" transform="translate(488.11214447021484 624.1175785064697) rotate(0 51.5 21.5)"><path d="M-1.82 -1.71 C34.69 -0.83, 68.45 -0.1, 101.42 0.09 M0.6 0.91 C36.06 1.02, 70.04 -0.8, 102.95 0.4 M102.3 1.51 C103.2 14.36, 104.65 29.24, 103.86 42.34 M103.43 0.64 C103.22 11.62, 102.04 23.13, 103.6 43.35 M102.64 42.25 C77.01 40.83, 45.56 42.09, 1.92 43.63 M102.7 43.13 C78.03 42.25, 51.85 43.52, -0.09 43.71 M-0.44 43.79 C0.61 33.97, 1.55 21.33, 1.99 -0.61 M-0.36 42.54 C-0.97 34.31, 0.45 23.69, 0.63 -0.47" stroke="#212121" stroke-width="2" fill="none"></path></g><g transform="translate(526.6121444702148 633.1175785064697) rotate(0 13 12.5)"><text x="13" y="18" font-family="Virgil, Segoe UI Emoji" font-size="20px" fill="#212121" text-anchor="middle" style="white-space: pre;" direction="ltr">p2</text></g><g stroke-linecap="round" transform="translate(609.7214889526367 623.1158237457275) rotate(0 52.5 21)"><path d="M-0.32 0.1 C39.47 1.73, 80.48 0.99, 105.82 1.94 M0.96 0.89 C29.99 -1.88, 60.27 -0.55, 105.23 -0.67 M105.49 0.45 C106.79 17.86, 105.71 32.22, 104.58 41.68 M105.29 -0.38 C104.29 14.3, 105.79 30.7, 104.7 41.95 M106.86 40.1 C74.51 40.96, 49.43 42.23, -1.06 42.19 M105.5 41.22 C72.97 42.63, 41.29 42.85, -0.45 42.03 M0.62 43.93 C1.66 26.33, 2.09 9.56, -1.63 1.85 M-0.57 42.71 C1.01 29.54, 0.79 17.61, 0.81 -0.21" stroke="#212121" stroke-width="2" fill="none"></path></g><g transform="translate(649.7214889526367 631.6158237457275) rotate(0 12.5 12.5)"><text x="12.5" y="18" font-family="Virgil, Segoe UI Emoji" font-size="20px" fill="#212121" text-anchor="middle" style="white-space: pre;" direction="ltr">p3</text></g><g transform="translate(447.0636749267578 247.72139167785645) rotate(0 50.5 12.5)"><text x="0" y="18" font-family="Virgil, Segoe UI Emoji" font-size="20px" fill="#212121" text-anchor="start" style="white-space: pre;" direction="ltr">Zookeeper</text></g><g stroke-linecap="round"><g transform="translate(469.9720001220703 647.3196483925756) rotate(0 -63.272377231721805 0.8862127356670726)"><path d="M0.53 0.89 C-20.49 1.14, -105.13 1.8, -126.17 1.92 M-0.65 0.31 C-21.83 0.16, -106.16 -0.42, -127.08 0.02" stroke="#212121" stroke-width="2" fill="none"></path></g><g transform="translate(469.9720001220703 647.3196483925756) rotate(0 -63.272377231721805 0.8862127356670726)"><path d="M-97.46 -10.26 C-106.6 -6.2, -115.55 -5.49, -127.95 -1.58 M-98.62 -9.58 C-110.45 -5.73, -120.84 -2.42, -127.06 0.55" stroke="#212121" stroke-width="2" fill="none"></path></g><g transform="translate(469.9720001220703 647.3196483925756) rotate(0 -63.272377231721805 0.8862127356670726)"><path d="M-97.35 10.26 C-106.6 8.18, -115.57 2.75, -127.95 -1.58 M-98.52 10.95 C-110.25 6.87, -120.69 2.27, -127.06 0.55" stroke="#212121" stroke-width="2" fill="none"></path></g></g><mask></mask><g stroke-linecap="round" transform="translate(17.76233673095703 842.9195880889893) rotate(0 114.17848587036133 83.946533203125)"><path d="M0.49 1.5 C46.27 -1.07, 93.54 0.98, 229.5 -0.74 M0.64 -0.25 C76.35 -1.06, 153.14 0, 229.11 -0.4 M229.8 -0.51 C230.97 50.92, 231.07 102.5, 228.05 167.81 M228.9 0.83 C227.72 41.83, 226.07 83.1, 228.91 167.8 M226.86 168.25 C140.63 169.42, 48.72 170.15, -0.04 167.98 M228.43 168.66 C172.12 168.94, 117.24 169.91, -0.19 167.61 M-1.23 167.52 C-0.55 106.64, -3.1 43.91, -1.54 0.4 M-0.23 168.18 C-0.01 105.67, 0.65 41.35, 0.22 -0.67" stroke="#212121" stroke-width="1" fill="none"></path></g><g stroke-linecap="round" transform="translate(34.1131591796875 874.5980548858643) rotate(0 96.54487609863281 18.11107635498047)"><path d="M-0.64 -0.53 C53.58 0.48, 105.33 1.69, 192.6 -1.27 M-0.37 0.3 C41.29 -0.76, 83.39 -1.78, 192.3 -0.63 M194.17 1.18 C192.02 13.51, 193.69 28.53, 192 35.3 M193.69 0.24 C193.69 10.85, 192.9 22.49, 193.04 36.15 M192.82 37.01 C141.21 38.84, 84.87 39.02, -0.33 37.65 M192.64 36.18 C142.19 36.85, 89.62 37.2, -0.67 35.91 M1.11 34.94 C2.03 27.38, -0.61 19.57, 1.89 -1.88 M-0.57 36.8 C1.05 24.32, -0.53 15.11, 0.65 0.79" stroke="#212121" stroke-width="1" fill="none"></path></g><g stroke-linecap="round" transform="translate(42.71949768066406 955.6115436553955) rotate(0 32.586517333984375 18.11279296875)"><path d="M0.39 -0.74 C19.72 -0.55, 36.83 -0.45, 63.42 -1.64 M0 0.08 C26.7 -1.16, 51.37 -1.09, 65.99 0.17 M66.53 1.1 C64.42 8.32, 66.61 17.61, 65.08 36.49 M66.06 -0.05 C64.65 10.41, 65.72 19.13, 65.58 37.04 M64.02 36.82 C51.28 34.9, 33.04 36.18, -1.17 35.18 M65 35.48 C45.27 36.54, 25.9 37.04, -0.74 35.81 M-0.05 35.94 C-0.2 25.39, 0.45 11.39, -1.49 0.16 M-0.9 36.12 C-0.52 28.18, -0.95 18.62, -0.02 0.47" stroke="#212121" stroke-width="1" fill="none"></path></g><g transform="translate(66.80601501464844 961.2243366241455) rotate(0 8.5 12.5)"><text x="8.5" y="18" font-family="Virgil, Segoe UI Emoji" font-size="20px" fill="#212121" text-anchor="middle" style="white-space: pre;" direction="ltr">c1</text></g><g stroke-linecap="round" transform="translate(152.09129333496094 957.1755695343018) rotate(0 34.414215087890625 17.5)"><path d="M-0.97 -0.14 C13.28 0.17, 29.28 -0.92, 68.88 1.85 M0.46 -0.43 C20.27 0.19, 41.6 -0.46, 68.66 0.35 M69.47 -0.41 C70.76 9.25, 68.55 15.09, 70.23 33.98 M69.74 -0.7 C68.89 14.19, 67.97 26.23, 68.51 34.75 M66.87 36.63 C46.05 35.37, 20.57 34.04, -1.42 33.12 M68.51 35.78 C48.57 34.51, 30.73 36.27, -0.28 34.99 M-0.58 34.72 C-0.9 24.78, -1.9 14.89, 0.94 0.02 M0.31 34.22 C0.21 26.46, 0.2 18.65, -0.57 0.74" stroke="#212121" stroke-width="1" fill="none"></path></g><g transform="translate(173.50550842285156 962.1755695343018) rotate(0 13 12.5)"><text x="13" y="18" font-family="Virgil, Segoe UI Emoji" font-size="20px" fill="#212121" text-anchor="middle" style="white-space: pre;" direction="ltr">c2</text></g><g transform="translate(19.7222900390625 803.1201801300049) rotate(0 76.5 12.5)"><text x="0" y="18" font-family="Virgil, Segoe UI Emoji" font-size="20px" fill="#212121" text-anchor="start" style="white-space: pre;" direction="ltr">consumer group1</text></g><g stroke-linecap="round" transform="translate(301.03567123413086 843.1025714874268) rotate(0 114.17848587036133 83.946533203125)"><path d="M1.59 -0.78 C61.02 1.03, 122.29 3.22, 226.7 1.06 M0.09 0.72 C74.82 -2.12, 150.23 -2.25, 228.21 -0.18 M227.58 -0.31 C231.69 63.76, 230 122.9, 229.13 169.85 M227.83 0.1 C228.34 35.41, 227.93 70.04, 227.74 167.18 M228.99 167.84 C136.51 168.64, 46.49 167.67, -0.72 169.56 M227.79 168.72 C176.14 168.52, 124.17 169.07, -0.03 167.57 M1.26 168.74 C1.57 107.34, 0.69 47.88, -1.37 1.88 M0.07 167.26 C0.9 104.6, 0.73 39.74, 0.2 -0.16" stroke="#212121" stroke-width="1" fill="none"></path></g><g stroke-linecap="round" transform="translate(317.3864936828613 874.7810382843018) rotate(0 96.54487609863281 18.11107635498047)"><path d="M-0.92 0.47 C54.17 -0.55, 111.62 -3.73, 194.33 0.56 M0.85 -0.09 C74.8 0.31, 149.93 -0.36, 192.88 0.68 M192.78 1.72 C195.03 14.37, 192.37 29.46, 195.05 34.44 M193.19 -0.24 C193.48 10.7, 192.74 22.08, 192.38 37.17 M193.03 34.23 C133.32 35.08, 72.16 36.1, 1.95 34.79 M194.06 36.13 C130.64 35.05, 69.27 34.91, -0.38 36.78 M0.85 36.38 C-0.44 27.67, -0.1 19.2, 1.88 1.61 M-0.63 35.78 C0.86 27.64, -0.1 20.47, -0.16 0.69" stroke="#212121" stroke-width="1" fill="none"></path></g><g stroke-linecap="round" transform="translate(325.9928321838379 955.794527053833) rotate(0 32.586517333984375 18.11279296875)"><path d="M0.47 -0.7 C15.34 2.17, 26.25 1.54, 65.73 1.8 M-0.09 -0.48 C25.8 -1.19, 50.4 -0.76, 65.85 0.96 M66.89 1.95 C65.06 10.01, 65.8 23.4, 63.39 36.49 M64.93 0.05 C64.34 13.59, 64.37 27.86, 66.12 36.33 M63.18 36.46 C41.93 35.3, 21.56 38.16, -1.43 36.65 M65.08 35.8 C42.39 37.07, 19.37 36.48, 0.56 35.39 M0.16 35.48 C-0.95 28.01, -1.59 22.48, 1.61 -1.6 M-0.44 36.84 C-0.63 27.49, 0.17 19.3, 0.69 -0.9" stroke="#212121" stroke-width="1" fill="none"></path></g><g transform="translate(350.07934951782227 961.407320022583) rotate(0 8.5 12.5)"><text x="8.5" y="18" font-family="Virgil, Segoe UI Emoji" font-size="20px" fill="#212121" text-anchor="middle" style="white-space: pre;" direction="ltr">c1</text></g><g stroke-linecap="round" transform="translate(435.36462783813477 957.3585529327393) rotate(0 34.414215087890625 17.5)"><path d="M1.24 1.87 C15.54 1.49, 35.52 2.04, 70.59 0.2 M0.51 -0.64 C26.32 0.12, 53.65 1.29, 68.79 -0.39 M68.85 -0.71 C69.9 11.92, 67.34 20.18, 70.72 33.94 M68.18 -0.7 C68.13 10.15, 69.69 21.83, 69.11 35.37 M66.98 34.09 C47.55 37.03, 26.52 35.5, 1.02 33.68 M68.93 35.21 C41.45 34.33, 14.7 33.87, -0.84 35.63 M-0.72 34.6 C-1.4 24.9, 1.58 9.44, -1.37 0.14 M-0.61 34.65 C0.35 26.56, 0.84 17.54, 0.86 -0.27" stroke="#212121" stroke-width="1" fill="none"></path></g><g transform="translate(456.7788429260254 962.3585529327393) rotate(0 13 12.5)"><text x="13" y="18" font-family="Virgil, Segoe UI Emoji" font-size="20px" fill="#212121" text-anchor="middle" style="white-space: pre;" direction="ltr">c2</text></g><g transform="translate(302.9956245422363 803.3031635284424) rotate(0 81 12.5)"><text x="0" y="18" font-family="Virgil, Segoe UI Emoji" font-size="20px" fill="#212121" text-anchor="start" style="white-space: pre;" direction="ltr">consumer group2</text></g><g stroke-linecap="round" transform="translate(591.6161155700684 845.5322284698486) rotate(0 114.17848587036133 83.946533203125)"><path d="M-0.46 0.93 C78.18 1.35, 155 1.77, 227.93 -0.55 M0.32 0.03 C54.94 -0.53, 110.5 -0.63, 227.53 -0.13 M226.9 0.11 C227.84 36.78, 227.59 74.49, 229.36 168.27 M228.73 -0.49 C228.16 59.82, 227.74 118.61, 228.47 168.54 M229.93 169.15 C146.92 166.42, 65.16 169.28, -0.7 168.52 M227.73 167.04 C147.92 168.79, 67.82 169.65, -0.35 168.05 M0.39 167.04 C-0.29 127.75, 2.08 85.66, -0.05 0.27 M-0.84 167.89 C-0.3 117.45, -0.72 65.48, -0.92 -0.49" stroke="#212121" stroke-width="1" fill="none"></path></g><g stroke-linecap="round" transform="translate(607.9669380187988 877.2106952667236) rotate(0 96.54487609863281 18.11107635498047)"><path d="M1.09 1.06 C48.08 1.04, 95.67 0.02, 192.44 -1.15 M0.04 -0.46 C73.28 -0.93, 145.99 -1.7, 192.94 -0.77 M193.2 -0.36 C192.48 9.92, 192.68 22.06, 193.47 37.23 M192.6 0.06 C193.98 9.95, 193.92 20.75, 193.74 36.77 M194.57 35.67 C147.21 36.51, 106.14 37.18, 0.73 37.26 M192.09 36.13 C153.11 35.01, 114.75 34.4, 0.19 35.73 M-0.86 35.56 C2.18 27.86, 2.12 16.03, 0.27 0.07 M-0.01 36.15 C0.47 24.37, -0.59 12.58, -0.49 -0.23" stroke="#212121" stroke-width="1" fill="none"></path></g><g stroke-linecap="round" transform="translate(616.5732765197754 958.2241840362549) rotate(0 32.586517333984375 18.11279296875)"><path d="M1.06 0.99 C18.38 1.12, 35.22 -1, 64.02 1.54 M-0.46 0.44 C22.4 0.3, 44.22 -0.17, 64.41 -0.09 M64.81 -0.73 C64.3 11.57, 65.91 24.59, 66.18 35.92 M65.23 0.96 C64.95 11.04, 65.42 20.93, 65.72 35.53 M64.62 34.78 C44.95 38.62, 26.89 37.44, 1.04 34.3 M65.08 35.61 C41.06 35.96, 16.13 35.76, -0.5 36 M-0.66 38.12 C1.64 30.08, -0.12 20.55, 0.07 0.27 M-0.07 36.7 C-0.19 24.77, -0.62 14, -0.23 -0.63" stroke="#212121" stroke-width="1" fill="none"></path></g><g transform="translate(640.6597938537598 963.8369770050049) rotate(0 8.5 12.5)"><text x="8.5" y="18" font-family="Virgil, Segoe UI Emoji" font-size="20px" fill="#212121" text-anchor="middle" style="white-space: pre;" direction="ltr">c1</text></g><g stroke-linecap="round" transform="translate(725.9450721740723 959.7882099151611) rotate(0 34.414215087890625 17.5)"><path d="M0.52 1.48 C23.89 -0.99, 47.63 1.2, 69.76 0.76 M-0.2 0.32 C19.94 -0.45, 41.05 -0.4, 69.17 -0.73 M68.22 -0.53 C69.77 11.06, 69.78 21.07, 68.43 35.74 M68.47 0.9 C68.96 9.42, 69.39 16.85, 68.7 35.92 M67.34 36.92 C42.28 35.24, 18.41 32.58, 1.46 33.53 M69.03 35.39 C54.64 34.76, 40.78 34.35, -0.8 35.19 M1.71 36.83 C0.06 26.27, 0.18 17.28, 0 -1.69 M-0.49 34.41 C-0.9 24.03, -0.21 13.41, 0.47 0.66" stroke="#212121" stroke-width="1" fill="none"></path></g><g transform="translate(747.3592872619629 964.7882099151611) rotate(0 13 12.5)"><text x="13" y="18" font-family="Virgil, Segoe UI Emoji" font-size="20px" fill="#212121" text-anchor="middle" style="white-space: pre;" direction="ltr">c2</text></g><g transform="translate(593.5760688781738 805.7328205108643) rotate(0 80.5 12.5)"><text x="0" y="18" font-family="Virgil, Segoe UI Emoji" font-size="20px" fill="#212121" text-anchor="start" style="white-space: pre;" direction="ltr">consumer group3</text></g><g transform="translate(85.37620544433594 879.6073780059814) rotate(0 48 12.5)"><text x="0" y="18" font-family="Virgil, Segoe UI Emoji" font-size="20px" fill="#212121" text-anchor="start" style="white-space: pre;" direction="ltr">partitions</text></g><g transform="translate(366.56451416015625 880.2687549591064) rotate(0 48 12.5)"><text x="0" y="18" font-family="Virgil, Segoe UI Emoji" font-size="20px" fill="#212121" text-anchor="start" style="white-space: pre;" direction="ltr">partitions</text></g><g transform="translate(656.6794128417969 881.0705280303955) rotate(0 48 12.5)"><text x="0" y="18" font-family="Virgil, Segoe UI Emoji" font-size="20px" fill="#212121" text-anchor="start" style="white-space: pre;" direction="ltr">partitions</text></g><g stroke-linecap="round"><g transform="translate(163.00247192382812 747.0407199859619) rotate(0 -1.6797017487929793 23.268376616099772)"><path d="M0.15 0.28 C-0.16 8.04, -2.16 38.4, -2.86 45.98 M-1.23 -0.61 C-1.56 7.34, -2.87 39.28, -3.51 47.15" stroke="#212121" stroke-width="1" fill="none"></path></g><g transform="translate(163.00247192382812 747.0407199859619) rotate(0 -1.6797017487929793 23.268376616099772)"><path d="M-9.76 25.66 C-10.06 28.59, -8.96 34.65, -3.49 46.86 M-10.54 23.95 C-8.98 32.5, -5.19 38.91, -3.53 46.55" stroke="#212121" stroke-width="1" fill="none"></path></g><g transform="translate(163.00247192382812 747.0407199859619) rotate(0 -1.6797017487929793 23.268376616099772)"><path d="M6.23 26.59 C2.47 29.33, 0.11 35.19, -3.49 46.86 M5.45 24.88 C2.2 33.02, 1.2 39.15, -3.53 46.55" stroke="#212121" stroke-width="1" fill="none"></path></g></g><mask></mask><g stroke-linecap="round"><g transform="translate(348.84498596191406 736.6367816925049) rotate(0 160.04525934868963 28.71112722306043)"><path d="M0.24 -0.36 C53.8 9.36, 267.63 49.34, 321.19 59.02 M-1.1 -1.6 C52.38 7.71, 266.85 47.16, 320.6 57.21" stroke="#212121" stroke-width="1" fill="none"></path></g><g transform="translate(348.84498596191406 736.6367816925049) rotate(0 160.04525934868963 28.71112722306043)"><path d="M290.41 63.3 C300.41 62.51, 306.7 60.4, 321.41 57.3 M290.48 61.91 C300.61 61.44, 308.91 58.32, 319.96 57.7" stroke="#212121" stroke-width="1" fill="none"></path></g><g transform="translate(348.84498596191406 736.6367816925049) rotate(0 160.04525934868963 28.71112722306043)"><path d="M294.14 43.12 C303.19 48.09, 308.42 51.73, 321.41 57.3 M294.22 41.73 C303.4 47.35, 310.58 50.3, 319.96 57.7" stroke="#212121" stroke-width="1" fill="none"></path></g></g><mask></mask><g stroke-linecap="round"><g transform="translate(261.9941711425781 750.2270984649658) rotate(0 38.11738332389854 20.846854574312488)"><path d="M0 -0.78 C12.43 5.87, 62.76 34.07, 75.4 41.1 M-1.46 1.42 C11.28 8.76, 64.97 35.6, 77.7 42.48" stroke="#212121" stroke-width="1" fill="none"></path></g><g transform="translate(261.9941711425781 750.2270984649658) rotate(0 38.11738332389854 20.846854574312488)"><path d="M46.64 37.31 C58.38 39.47, 69.79 41.49, 77.01 42.98 M46.99 37.93 C56.27 40.91, 66.07 40.71, 77.62 42.01" stroke="#212121" stroke-width="1" fill="none"></path></g><g transform="translate(261.9941711425781 750.2270984649658) rotate(0 38.11738332389854 20.846854574312488)"><path d="M56.08 19.09 C64.54 27.93, 72.48 36.64, 77.01 42.98 M56.42 19.71 C63.11 27.87, 70.18 32.92, 77.62 42.01" stroke="#212121" stroke-width="1" fill="none"></path></g></g><mask></mask></svg>